HIERARCHY
ROOT Hips
{
  OFFSET 0 0 0
  CHANNELS 6 Xposition Yposition Zposition Zrotation Yrotation Xrotation
  JOINT LeftThigh
  {
    OFFSET 8.409438 0 -5.917753
    CHANNELS 3 Zrotation Yrotation Xrotation
    JOINT LeftLeg
    {
      OFFSET 0 0 -42.358652
      CHANNELS 3 Zrotation Yrotation Xrotation
      JOINT LeftFoot
      {
        OFFSET 0 0 -39.357303
        CHANNELS 3 Zrotation Yrotation Xrotation
      }
    }
  }
  JOINT RightThigh
  {
    OFFSET -8.409438 0 -5.917753
    CHANNELS 3 Zrotation Yrotation Xrotation
    JOINT RightLeg
    {
      OFFSET 0 0 -42.358652
      CHANNELS 3 Zrotation Yrotation Xrotation
      JOINT RightFoot
      {
        OFFSET 0 0 -39.357303
        CHANNELS 3 Zrotation Yrotation Xrotation
      }
    }
  }
  JOINT SpineLow
  {
    OFFSET 0 0 4.719101
    CHANNELS 3 Zrotation Yrotation Xrotation
    JOINT SpineMid
    {
      OFFSET 0 0 12.899191
      CHANNELS 3 Zrotation Yrotation Xrotation
      JOINT Chest
      {
        OFFSET 0 0 12.899191
        CHANNELS 3 Zrotation Yrotation Xrotation
        JOINT LeftShoulder
        {
          OFFSET 7.550562 1.41573 9.438202
          CHANNELS 3 Zrotation Yrotation Xrotation
          JOINT LeftArm
          {
            OFFSET 9.155056 0 4.247191
            CHANNELS 3 Zrotation Yrotation Xrotation
            JOINT LeftForearm
            {
              OFFSET 0 0 25.771955
              CHANNELS 3 Zrotation Yrotation Xrotation
              JOINT LeftHand
              {
                OFFSET 0 0 25.197169
                CHANNELS 3 Zrotation Yrotation Xrotation
              }
            }
          }
        }
        JOINT RightShoulder
        {
          OFFSET -7.550562 1.41573 9.438202
          CHANNELS 3 Zrotation Yrotation Xrotation
          JOINT RightArm
          {
            OFFSET -9.155056 0 4.247191
            CHANNELS 3 Zrotation Yrotation Xrotation
            JOINT RightForearm
            {
              OFFSET 0 0 -25.771955
              CHANNELS 3 Zrotation Yrotation Xrotation
              JOINT RightHand
              {
                OFFSET 0 0 -25.197169
                CHANNELS 3 Zrotation Yrotation Xrotation
              }
            }
          }
        }
        JOINT Neck
        {
          OFFSET 0 0 15.101124
          CHANNELS 3 Zrotation Yrotation Xrotation
          JOINT Head
          {
            OFFSET 0 0 11.325843
            CHANNELS 3 Zrotation Yrotation Xrotation
            End Site
            {
              OFFSET 0 0 14.157303
            }
          }
        }
      }
    }
  }
}
MOTION
Frames: 14
Frame Time: 0.01
0.0  101.685394  0.0  4.362839  38.841509  -95.416111  12.74043  -16.982257  2.124383  -11.593285  9.210989  13.953064  6.37531  0.064663  5.087605  -32.911935  21.925051  -1.524305  -0.938618  1.508903  15.033356  -0.677682  2.109141  -2.450503  2.888809  1.138008  1.379715  7.963138  2.93963  3.903389  7.963137  2.93963  3.903389  -4.23012  11.653532  7.840076  124.094632  30.493809  172.725198  -26.752356  18.74733  100.35012  56.76716  -20.410271  2.940928  13.767216  2.121653  -5.832894  176.046589  62.624858  143.14129  -20.065142  50.2296  -47.037654  94.240802  -7.446276  26.186442  -9.703808  -3.157081  -2.328762  -7.288174  -2.331579  -1.796845  
0.0  101.685394  0.0  4.357485  37.184822  -95.432759  13.31808  -16.93776  2.349202  -11.747042  9.207603  14.034281  6.799566  0.291492  5.049427  -31.929871  21.897324  -1.508798  -0.501349  1.311089  14.768642  -0.591093  2.024345  -2.390344  3.441986  1.321089  1.287577  9.483492  3.418325  3.702227  9.483492  3.418325  3.702227  -5.492384  10.091536  8.779897  126.469926  28.238195  169.231988  -27.770688  20.105062  100.282539  54.492521  -21.847429  3.85567  11.232786  3.251362  -6.333484  169.760034  57.54463  139.78427  -3.850317  56.404825  -30.150234  90.14572  -4.044115  28.326998  -10.914645  -3.946513  -1.802174  -8.194474  -2.928848  -1.422226  
0.0  101.685394  0.0  4.134011  36.011517  -95.675004  14.081271  -17.026568  2.513196  -12.07288  9.026212  14.168945  7.183333  0.469152  5.12745  -30.817075  21.756633  -1.152911  -0.385457  1.175575  14.554002  -0.664297  2.014867  -2.309763  3.814373  1.452967  1.224859  10.507345  3.765939  3.571016  10.507346  3.765939  3.571016  -5.399165  8.269084  10.424719  127.817561  26.073248  166.961591  -28.367939  20.080964  100.603429  54.423175  -22.453605  3.49208  8.736834  4.759252  -6.371225  165.964995  53.318388  138.846575  3.256751  57.546867  -23.362003  86.958064  -3.878576  28.495867  -11.79938  -4.642896  -1.445958  -8.85574  -3.455818  -1.174226  
0.0  101.685394  0.0  3.870082  35.565455  -95.826785  15.02338  -17.103519  2.446089  -12.692827  8.783143  14.31151  6.920225  0.617562  5.08816  -30.035122  21.482668  -0.806529  -0.67775  1.146094  14.437999  -0.738947  1.915677  -2.303657  4.065741  1.582742  1.214497  11.203039  4.106895  3.579041  11.203039  4.106895  3.579041  -5.594707  6.837461  11.617406  129.234663  24.153933  165.11232  -28.688143  18.32439  101.053331  55.018291  -22.321032  2.973392  6.286555  6.457241  -6.621764  163.169128  49.479116  138.65603  -0.047259  55.548803  -25.863504  86.908601  -2.459202  28.581116  -12.766379  -5.397232  -1.409131  -9.580212  -4.020612  -1.169739  
0.0  101.685394  0.0  3.471358  35.613326  -96.044747  16.287866  -17.378154  2.196645  -13.645063  8.596683  14.431283  6.57305  0.635229  5.126035  -29.456256  21.115441  -0.37429  -1.107719  1.192901  14.415501  -0.859695  1.974248  -2.303687  4.217049  1.687699  1.25551  11.626827  4.376782  3.718888  11.626827  4.376782  3.718888  -4.901638  5.552104  12.131087  129.876824  22.190182  163.593093  -28.576553  15.647693  101.44914  55.363228  -22.289868  2.979967  4.525591  7.744381  -7.038282  160.126041  46.565961  138.522715  -2.900103  55.181613  -28.839664  89.107643  -1.816201  28.629562  -13.749759  -6.187195  -1.618482  -10.318775  -4.606817  -1.353213  
0.0  101.685394  0.0  2.886847  35.901218  -96.424814  17.808007  -17.964307  1.866475  -14.677641  8.500487  14.638181  5.946997  0.647012  5.070865  -29.183189  20.665177  0.072503  -1.473755  1.185496  14.442126  -0.904975  2.103212  -2.272378  4.205416  1.719804  1.269323  11.598199  4.462447  3.761623  11.5982  4.462447  3.761624  -2.631708  4.515917  12.828972  129.581819  20.209208  162.618098  -28.30703  13.987667  101.776839  55.154818  -22.421249  3.483314  3.282024  8.609723  -7.103127  159.095789  44.963384  139.33183  -0.682736  56.619739  -27.66961  90.610692  -2.062547  29.109293  -14.315772  -6.792631  -1.791039  -10.744281  -5.055903  -1.502505  
0.0  101.685394  0.0  2.570149  36.576233  -96.673531  18.984385  -18.446389  1.564511  -15.94426  8.588544  14.643  5.471504  0.65163  5.065887  -29.10445  20.458642  0.495608  -2.088275  1.254606  14.457457  -1.012847  2.175799  -2.251926  3.97016  1.705305  1.296941  10.955266  4.43243  3.819163  10.955265  4.432431  3.819164  -0.192131  4.255489  13.225719  129.528889  17.818801  162.021711  -28.294049  14.285806  101.851077  54.483685  -22.795241  4.526974  2.796785  9.841547  -7.40846  159.668952  44.806747  140.339104  5.67269  59.002818  -21.964338  87.804373  -0.818002  29.167382  -14.315931  -7.068326  -1.98592  -10.746455  -5.258265  -1.654994  
0.0  101.685394  0.0  2.318718  37.195164  -96.932631  19.820026  -18.870039  1.294985  -16.103664  8.389158  15.30901  4.346526  0.786702  4.681269  -29.025402  20.349414  0.949794  -2.475527  1.352893  14.518495  -1.296688  2.163377  -2.284869  3.680861  1.632244  1.274482  10.157187  4.25431  3.727482  10.157186  4.25431  3.727482  2.496081  4.020981  13.643321  129.122365  14.635724  161.961424  -28.573471  15.467869  101.721203  54.184295  -23.634178  5.559851  2.909031  10.95562  -7.561215  161.039571  45.277203  141.093356  7.515917  59.995125  -20.155466  85.445649  0.348726  28.221214  -14.082106  -7.036897  -1.867937  -10.569947  -5.238036  -1.56309  
0.0  101.685394  0.0  2.009975  37.485576  -97.123351  20.606321  -19.35367  0.986044  -16.958428  8.538931  15.308932  4.123624  0.843533  4.665479  -28.837904  20.054351  1.301285  -2.981032  1.47374  14.510336  -1.329815  2.212132  -2.269248  3.500284  1.584261  1.158771  9.652914  4.151132  3.393104  9.652914  4.151132  3.393104  4.351264  3.846031  14.857066  128.999497  12.021358  162.358374  -28.870812  16.620688  101.55781  54.688232  -24.611756  5.807591  3.252087  11.237702  -6.972156  162.783996  46.229876  142.146779  3.796595  60.076224  -23.510136  86.076154  0.73025  27.327302  -14.040084  -7.02482  -1.281184  -10.531647  -5.242519  -1.122536  
0.0  101.685394  0.0  1.420145  37.803624  -97.164422  20.686222  -19.787107  0.381252  -17.274483  8.607273  15.419663  4.052783  0.922095  4.649333  -28.741708  19.406281  1.526112  -3.565081  1.671461  14.459118  -1.314795  2.228609  -2.251324  3.377067  1.547675  0.971292  9.302362  4.084501  2.868411  9.302362  4.084501  2.868411  5.722422  3.360683  15.981584  128.658021  9.856299  162.904501  -29.208929  17.658829  101.471725  55.284886  -25.076578  5.506978  3.366367  11.082706  -5.895827  165.473082  47.872665  144.034398  0.765913  60.013586  -26.629348  87.077608  0.511971  26.732213  -14.191441  -7.088065  -0.481548  -10.635558  -5.308267  -0.526428  
0.0  101.685394  0.0  0.700732  38.341675  -97.466355  19.787017  -20.264845  0.105492  -17.342881  8.708697  15.464594  4.290184  0.96536  4.661365  -29.264535  18.841677  1.775052  -3.693763  1.731074  14.437712  -1.276727  2.263034  -2.23182  3.191288  1.488592  0.856857  8.784272  3.947096  2.536619  8.784272  3.947096  2.536619  7.077652  3.246972  16.430833  128.367793  8.499274  163.316524  -29.576035  18.626377  101.356043  54.905585  -24.969483  5.599661  3.853837  10.794158  -5.037175  168.880534  49.743966  146.547489  -0.223549  60.246699  -27.647494  87.064488  0.916282  26.026569  -14.200544  -7.116615  0.158583  -10.634801  -5.344547  -0.047419  
0.0  101.685394  0.0  0.363872  38.609747  -98.04588  18.212503  -20.450758  0.531548  -17.019112  8.753137  15.598404  4.760576  1.019696  4.72161  -29.390651  18.837803  2.39272  -3.852181  1.753383  14.39441  -1.17877  2.270579  -2.220504  3.020312  1.414961  0.858081  8.313048  3.752979  2.520454  8.313048  3.752979  2.520454  8.489683  3.684512  16.3948  128.260285  7.947055  163.615179  -29.760563  19.422482  101.139723  54.154816  -24.593915  6.282049  4.834808  10.656852  -4.42199  170.758866  50.87022  149.337433  -5.002606  60.444582  -31.559315  87.135501  1.564406  25.152999  -14.011218  -7.0107  0.601884  -10.488328  -5.275082  0.289534  
0.0  101.685394  0.0  0.460153  38.123485  -98.306605  17.169866  -20.41484  1.132248  -16.303876  8.751471  15.766981  5.2642  1.058624  4.75438  -29.106402  19.041438  2.688236  -3.466347  1.658969  14.431793  -1.245962  2.309382  -2.214912  2.985192  1.372878  0.875806  8.215934  3.637372  2.561551  8.215933  3.637372  2.561551  9.525999  4.449833  16.150644  128.308983  8.193196  163.882032  -29.691979  19.850063  100.882057  53.833297  -24.0829  6.739149  6.158596  10.487782  -3.846529  173.896313  52.446662  152.011498  -6.057808  60.48683  -32.970507  87.459013  1.838891  24.553552  -13.860551  -6.862172  0.843938  -10.37345  -5.168892  0.476142  
0.0  101.685394  0.0  0.56311  37.284696  -98.277639  16.74652  -20.474596  1.432933  -15.665223  8.939941  15.869353  5.631674  1.023316  4.701791  -28.682008  19.127557  2.669588  -3.206448  1.496012  14.46455  -1.098111  2.414482  -2.175947  3.056787  1.357024  0.86251  8.410306  3.592917  2.527028  8.410307  3.592917  2.527028  9.996864  5.121205  15.814381  128.17168  8.970012  164.218756  -29.801306  19.622485  100.460989  53.415615  -23.641269  7.122047  7.192208  10.171425  -3.321533  176.893083  53.907406  154.48795  -6.602219  60.521123  -33.829684  87.686945  2.16767  24.006394  -13.706008  -6.836889  0.989994  -10.256177  -5.152913  0.587938  
